/* XPM */
static char *_2a3e0554eba4862afa1f21106effa98[] = {
/* columns rows colors chars-per-pixel */
"16 16 77 1 ",
"  c #B48E65",
". c #CFAF7B",
"X c #D3B173",
"o c #D4B787",
"O c #DABD89",
"+ c #D4B890",
"@ c #D1B89B",
"# c #D6BC98",
"$ c #D5BD9F",
"% c #D3BDA5",
"& c #DDC292",
"* c #DFC597",
"= c #DEC598",
"- c #E1C99D",
"; c #D8C1A3",
": c #D7C3AD",
"> c #DDCAAF",
", c #D7C4B2",
"< c #DECBB2",
"1 c #DECCB5",
"2 c #E0C9A2",
"3 c #E0CAA5",
"4 c #E3CEA8",
"5 c #E3D0AF",
"6 c #E6D2AD",
"7 c #E0CEB5",
"8 c #E4D2B3",
"9 c #E7D4B2",
"0 c #E6D4B5",
"q c #E6D4B7",
"w c #E8D7B7",
"e c #E7D5B8",
"r c #E6D6BD",
"t c #E8D7B9",
"y c #EAD9BB",
"u c #E2D2C0",
"i c #E5D5C1",
"p c #E2D4C4",
"a c #E7D8C3",
"s c #ECDCC0",
"d c #ECDDC2",
"f c #E8DBC7",
"g c #EBDDC4",
"h c #EDDFC6",
"j c #EDDFC7",
"k c #E5D9CF",
"l c #EDE0C7",
"z c #EDE0C8",
"x c #EEE2CC",
"c c #EFE3CE",
"v c #F0E4CD",
"b c #ECE0D1",
"n c #EEE4D8",
"m c #EDE5DE",
"M c #F1E5D2",
"N c #F1E6D2",
"B c #F3E9D7",
"V c #F4EAD7",
"C c #F3EBDB",
"Z c #F5ECDC",
"A c #F5EDDF",
"S c #F6EEE1",
"D c #F2EDE7",
"F c #F4EFEC",
"G c #F8F2E6",
"H c #F7F2E8",
"J c #F8F3E9",
"K c #F9F4EA",
"L c #FAF5ED",
"P c #F5F2F0",
"I c #F7F4F0",
"U c #FBF7F1",
"Y c #F9F7F4",
"T c #FCFBF7",
"R c #FDFBF9",
"E c #FDFCFA",
"W c gray100",
/* pixels */
"WWWWWWWUHWWWWWWW",
"WWWWLze+A2-TWWWW",
"WWWA0bbrW@moBWWW",
"WWSgr8NChd;,5JWW",
"WEJ8tWWWWWTik4WW",
"WCh0UERTWTRW >KW",
"WNWhW&WOX6dLWWlW",
"WNcBw*CHNy*AYNcW",
"WzWvt*CSh9*ZFWjW",
"Wya.WzchCAIP:1GW",
"WSffzWWWWWW:pBWW",
"WW=H#CWWWD%r;SWW",
"WWW&fn7Wur@<BWWW",
"WWWW63HI%cBZWWWW",
"WWWWWEjyzSWWWWWW",
"WWWWWWWWWWWWWWWW"
};
