/* XPM */
static char *_7d8741975a54a86a975a9075d1345dd[] = {
/* columns rows colors chars-per-pixel */
"32 32 96 2 ",
"   c #976229",
".  c #A06F38",
"X  c #A57640",
"o  c #A97B45",
"O  c #AF824C",
"+  c #B08246",
"@  c #AC8153",
"#  c #B18754",
"$  c #B58C5C",
"%  c #BC9258",
"&  c #B48F69",
"*  c #BE9761",
"=  c #B6916A",
"-  c #B8946E",
";  c #BD9B74",
":  c #C59744",
">  c #C79B4C",
",  c #C89D4E",
"<  c #CBA257",
"1  c #CDA65E",
"2  c #C29D6D",
"3  c #C19E72",
"4  c #CCA664",
"5  c #CFAA65",
"6  c #C6A26E",
"7  c #CBA76B",
"8  c #CEAB6F",
"9  c #D1AD6C",
"0  c #C4A173",
"q  c #CBA973",
"w  c #D0AE77",
"e  c #D4B172",
"r  c #D6B57B",
"t  c #D7B87F",
"y  c #C5A786",
"u  c #CEAF80",
"i  c #CFB183",
"p  c #D7B983",
"a  c #D8B982",
"s  c #D6BA8D",
"d  c #DBBE8A",
"f  c #CFB493",
"g  c #CEB498",
"h  c #D2B792",
"j  c #D4BC9C",
"k  c #D8BF9D",
"l  c #CFB8A1",
"z  c #D2BCA7",
"x  c #DCC18F",
"c  c #DDC293",
"v  c #DFC699",
"b  c #E0C79B",
"n  c #E1C99D",
"m  c #DAC3A3",
"M  c #D7C2A9",
"N  c #DFCAAB",
"B  c #D7C3B0",
"V  c #DBC7B1",
"C  c #DECCB4",
"Z  c #DECDBB",
"A  c #E3CCA4",
"S  c #E4CFA9",
"D  c #E6D0A7",
"F  c #E5D1AC",
"G  c #E1CEB3",
"H  c #E7D4B3",
"J  c #E8D6B6",
"K  c #E3D3BC",
"L  c #E9D7B8",
"P  c #EADABC",
"I  c #E3D5C4",
"U  c #EBDDC4",
"Y  c #E4D7C9",
"T  c #E6D9CB",
"R  c #E8DDCF",
"E  c #E9DFD6",
"W  c #EFE2C7",
"Q  c #EFE2CC",
"!  c #F0E4CD",
"~  c #EDE2D4",
"^  c #EEE7DF",
"/  c #F0E6D3",
"(  c #F2E8D5",
")  c #F0E7DA",
"_  c #F4EBDC",
"`  c #EFE9E4",
"'  c #F5EEE2",
"]  c #F3EDE8",
"[  c #F6F1E5",
"{  c #F7F2EA",
"}  c #F9F4EC",
"|  c #FDF9EF",
" . c #F6F2F1",
".. c #FAF6F1",
"X. c #FCFAF6",
"o. c #FFFFFF",
/* pixels */
"o.o.o.o.o.o.o.o.o.o.o.o.o.o.o.o.o.o.o.o.o.o.o.o.o.o.o.o.o.o.o.o.",
"o.o.o.o.o.o.o.o.o.o.o.o.o.{ ( Q Q ( X.o.o.o.o.o.o.o.o.o.o.o.o.o.",
"o.o.o.o.o.o.o.o.o.o.' J v J W Q J n e 9 A o.o.o.o.o.o.o.o.o.o.o.",
"o.o.o.o.o.o.o.o...H P / o.k 3 2 o.o.o.C J , A o.o.o.o.o.o.o.o.o.",
"o.o.o.o.o.o.o.( L ' o.m U o.0 o.o.o.f K ; o.D 9 o.o.o.o.o.o.o.o.",
"o.o.o.o.o.o.Q Q G N i o.% o.G ) o.o.; T  .~ - / 5 X.o.o.o.o.o.o.",
"o.o.o.o.o.( ! o._ q h X.P v A S c t n k o.o o.= X.9 o.o.o.o.o.o.",
"o.o.o.o.} U U 4 o.N U F } o.o.o.o.o.o.W F V X o.B U x o.o.o.o.o.",
"o.o.o.o.L o.8 o.s Q ( o.o.o.o.o.o.o.o.o.o.J o.; ; o.b ( o.o.o.o.",
"o.o.o.' ! o.{ w U _ o.o.o.o.o.o.o.o.o.o.o.o.U I o.y I d o.o.o.o.",
"o.o.o.L X.o.c X.L o.o.o.o.o.o.o.o.o.o.o.o.o.o.| @ =  .A ' o.o.o.",
"o.o.X.U A p S H o.' .._ o.' ..' X.o.' } } ' o.} o.  & _ L o.o.o.",
"o.o._ ! o.o.U H o./ : } o.[ : / e 1 ' 4 v H P o...X.o.X.v o.o.o.",
"o.o.Q ' o.o.) / o.} > o.o.o.: o.Q , o.9 J o.{ o.o.o.o.o.c o.o.o.",
"o.o.P } ' X.L } ( A e Q _ [ A o.! D } x A P F o. .o.' o.A o.o.o.",
"o.o.J } / n L } X.e c F U ( { o.[ Q U S v a F o.^ ..c ..A X.o.o.",
"o.o.L ' o.o.J ' ) J 9 ) { } c X._ d [ d D / J o.Y o...o.A o.o.o.",
"o.o.U ! o.o.( P X.9 c F U ( } o.{ Q U F v r A o.Z o.o.o.n o.o.o.",
"o.o.) J _ u 6 A o.U 9 H P e 9 S t Q X.e v o.o.` ^ y o.X.H o.o.o.",
"o.o.o.t o.K N 7 X.o.o.o.o.o.o.o.o.o.o.o.o.o.o.l Z Z . G ( o.o.o.",
"o.o.o.v [ u U X.n o.o.o.o.o.o.o.o.o.o.o.o.o.Y E T R o.F o.o.o.o.",
"o.o.o.' t o.X.* P Q o.o.o.o.o.o.o.o.o.o.o.` l j # o.[ L o.o.o.o.",
"o.o.o.o.a ! k o.K u ( o.o.o.o.o.o.o.o.o.T z X.; ` g F o.o.o.o.o.",
"o.o.o.o.o., o.] i / N } X.o.o.o.o.o.^ l Y ; [ Z ; ! / o.o.o.o.o.",
"o.o.o.o.o.) < o.m * o.6 f o.o.] ` T M  .$ I # o./ P o.o.o.o.o.o.",
"o.o.o.o.o.o./ < } o.K o.* o.o.o.+ o.~ j o.$ C P L o.o.o.o.o.o.o.",
"o.o.o.o.o.o.o.} 5 A o.m G o.o.~ 3 I o.O o.| F / o.o.o.o.o.o.o.o.",
"o.o.o.o.o.o.o.o.o.J 9 F ' o.o.T K C X._ A J X.o.o.o.o.o.o.o.o.o.",
"o.o.o.o.o.o.o.o.o.o.o.Q A a t v b v A Q X.o.o.o.o.o.o.o.o.o.o.o.",
"o.o.o.o.o.o.o.o.o.o.o.o.o.o.o.o.o.o.o.o.o.o.o.o.o.o.o.o.o.o.o.o.",
"o.o.o.o.o.o.o.o.o.o.o.o.o.o.o.o.o.o.o.o.o.o.o.o.o.o.o.o.o.o.o.o.",
"o.o.o.o.o.o.o.o.o.o.o.o.o.o.o.o.o.o.o.o.o.o.o.o.o.o.o.o.o.o.o.o."
};
