/* XPM */
static char *_536999ac46245d2b98e056bd2570cb3[] = {
/* columns rows colors chars-per-pixel */
"64 64 176 2 ",
"   c #752F00",
".  c #7E3B00",
"X  c #803E00",
"o  c #854500",
"O  c #8A4C05",
"+  c #8A4F0D",
"@  c #8D520E",
"#  c #955703",
"$  c #91560F",
"%  c #915716",
"&  c #90581C",
"*  c #A2650D",
"=  c #A16719",
"-  c #A76F1E",
";  c #AC751F",
":  c #976327",
">  c #9A6324",
",  c #976229",
"<  c #9B662C",
"1  c #9D692F",
"2  c #9F6C34",
"3  c #A26E2F",
"4  c #A97427",
"5  c #AB772B",
"6  c #B27D27",
"7  c #B17C28",
"8  c #A16F34",
"9  c #A37033",
"0  c #A87736",
"q  c #AE7C32",
"w  c #A4743B",
"e  c #AD7C3C",
"r  c #B17E33",
"t  c #A97A43",
"y  c #AA7B48",
"u  c #AA7F51",
"i  c #BA8525",
"p  c #B38336",
"a  c #B98837",
"s  c #B3833B",
"d  c #BD8D3B",
"f  c #C08E34",
"g  c #C3933D",
"h  c #AE8047",
"j  c #AD814C",
"k  c #B48643",
"l  c #B78A44",
"z  c #B3874E",
"x  c #B68A4D",
"c  c #B88D4B",
"v  c #B28651",
"b  c #B98E53",
"n  c #B48C5B",
"m  c #BC9355",
"M  c #BB935C",
"N  c #B28C64",
"B  c #B28D69",
"V  c #B79062",
"C  c #BA9465",
"Z  c #B3906A",
"A  c #BA9569",
"S  c #BF9B6C",
"D  c #B79673",
"F  c #BA9674",
"G  c #BD9A72",
"H  c #BC9C7B",
"J  c #C39544",
"K  c #C69947",
"L  c #C69A4A",
"P  c #C89D4E",
"I  c #C49B56",
"U  c #C89E52",
"Y  c #C29C5F",
"T  c #CAA156",
"R  c #CCA45C",
"E  c #C19B62",
"W  c #C19B6A",
"Q  c #C19E72",
"!  c #CDA661",
"~  c #CFA966",
"^  c #C5A16D",
"/  c #CAA56B",
"(  c #CEAA6C",
")  c #D0AB67",
"_  c #D1AD6C",
"`  c #C5A375",
"'  c #C9A673",
"]  c #CEAC76",
"[  c #C4A57F",
"{  c #CCAC7D",
"}  c #D2AF70",
"|  c #D3B175",
" . c #D5B57C",
".. c #D6B87F",
"X. c #DABA7F",
"o. c #BFA082",
"O. c #C3A683",
"+. c #C7AA86",
"@. c #CAAB82",
"#. c #C3A78B",
"$. c #CAAE8B",
"%. c #CEB185",
"&. c #CCB089",
"*. c #D7B781",
"=. c #D6B982",
"-. c #D9BB85",
";. c #D7BC88",
":. c #DABE8B",
">. c #C6AC90",
",. c #CDB393",
"<. c #CCB49C",
"1. c #D0B593",
"2. c #D3BA95",
"3. c #D3BA9C",
"4. c #CFBAA4",
"5. c #D3BDA3",
"6. c #D3BEA9",
"7. c #DCC18E",
"8. c #DDC293",
"9. c #DEC69A",
"0. c #DFC99E",
"q. c #E0C79A",
"w. c #E0C89E",
"e. c #D7C1A7",
"r. c #DAC4A2",
"t. c #DFC8A1",
"y. c #D5C1AA",
"u. c #DBC5A9",
"i. c #DEC9AC",
"p. c #D6C3B0",
"a. c #DAC7B1",
"s. c #DDCAB2",
"d. c #DDCCBA",
"f. c #DFD0BE",
"g. c #E1CBA3",
"h. c #E3CEAA",
"j. c #E5D1AD",
"k. c #E1CFB7",
"l. c #E6D3B2",
"z. c #E8D6B6",
"x. c #EAD8B4",
"c. c #E4D4BA",
"v. c #E8D7B9",
"b. c #E7D8BB",
"n. c #E9DABC",
"m. c #DECEC4",
"M. c #DFD1C3",
"N. c #E4D6C4",
"B. c #E7D9C3",
"V. c #EBDDC3",
"C. c #E3D7CA",
"Z. c #E6D9CC",
"A. c #EBDECA",
"S. c #E6DCD1",
"D. c #E8DED3",
"F. c #ECE0C7",
"G. c #EEE2CC",
"H. c #F0E3CA",
"J. c #EDE3D2",
"K. c #EDE4DA",
"L. c #F1E6D4",
"P. c #F1E8D7",
"I. c #F3EADB",
"U. c #EEE7E0",
"Y. c #EFE8E1",
"T. c #F4EEE3",
"R. c #F4EFEA",
"E. c #F7F1E6",
"W. c #F8F2E7",
"Q. c #F6F2EA",
"!. c #F9F4EC",
"~. c #F7F4F1",
"^. c #FAF7F2",
"/. c #FBF9F5",
"(. c #F8F7FA",
"). c #FFFFFF",
/* pixels */
").).).).).).).).).).).).).).).).).).).).).).).).).).).).).).).).).).).).).).).).).).).).).).).).).).).).).).).).).).).).).).).).",
").).).).).).).).).).).).).).).).).).).).).).).).).).).).).).).).).).).).).).).).).).).).).).).).).).).).).).).).).).).).).).).).",
").).).).).).).).).).).).).).).).).).).).).).).).).).).).).).).).).).).).).).).).).).).).).).).).).).).).).).).).).).).).).).).).",
").).).).).).).).).).).).).).).).).).).).).).).).).^.L.V.j.g.9.8.8.8.g.l.G.^.).).).).).).).).).).).).).).).).).).).).).).).).).).",
").).).).).).).).).).).).).).).).).).).).).).!.n.g.9.9.8.8.:.:.=.X. . .| | ) } 9.E.).).).).).).).).).).).).).).).).).).).).).).).",
").).).).).).).).).).).).).).).).).).).).P.j.g.g.0.g.G.W./.).).)./.^.T.A.g...( ~ T ( n.).).).).).).).).).).).).).).).).).).).).).",
").).).).).).).).).).).).).).).).).).I.j.h.g.l.E.).).I.&.{ ` 0 Q /.).).).).).).H.} T T R G.).).).).).).).).).).).).).).).).).).).",
").).).).).).).).).).).).).).).)./.v.j.h.n./.).u.r.).3.M 3.W s.@.T.).).).).N.A 3.).W. .R T  .^.).).).).).).).).).).).).).).).).).",
").).).).).).).).).).).).).).).I.j.j.v./.).).D.4 %.).T.R.s.x K.).).).).).).v M 4.> y.).I.} ! T L.).).).).).).).).).).).).).).).).",
").).).).).).).).).).).).).).G.l.z.P.).c.h.).).r.x ).).).c.x B.).).).).).C.3 a.).C 5.).).).g.) U l.).).).).).).).).).).).).).).).",
").).).).).).).).).).).).).F.l.z.).Q.Y ' m ^.).B.k B.).).i.# 1.).).).).).Q v R.).).).).K.H ~.I.} T g.).).).).).).).).).).).).).).",
").).).).).).).).).).).).V.l.n.).k.7 L.T.p r.).T.s M ).).).)./.I.T./.).).Z.t 3.t G ).).8 t % K.).| R g.).).).).).).).).).).).).).",
").).).).).).).).).).).G.l.n.).)./.{ a i./.m 2.).Q./.V.:.} _ ! R T L P | n.).N.j B.).v : T.).+ D.). .R z.).).).).).).).).).).).).",
").).).).).).).).).).T.j.z.).).).).Y.l t.V.E ).T.8.] :.z.L.Q././.^.E.V.g.} R 8.W.).K.% N.).H O I.)./. .T P.).).).).).).).).).).).",
").).).).).).).).)./.h.n.).c.a G.).).h.; k.).w.*.j.^.).).).).).).).).).).).W.0.} 9.).V ,.6.o f.).).(.I...! ).).).).).).).).).).).",
").).).).).).).).).z.z.Q.T.I h.6 9.).R.I.E...h./.).).).).).).).).).).).).).).).^.9.../.a.O +.).).s.X (.z.| :.).).).).).).).).).).",
").).).).).).).).P.l.V.).J /.).A.a z.).n.=.L.).).).).).).).).).).).).).).).).).).).G.-.P.).).).6.o u S.).-.) P.).).).).).).).).).",
").).).).).).).).h.x.).).J I ).^./ R.n.:.W.).).).).).).).).).).).).).).).).).).).).).I.9.I.).w . 6.).).).!.=.| ).).).).).).).).).",
").).).).).).).J.j.J.).).).! d ] t.W.;.~.).).).).).).).).).).).).).).).).).).).).).).).T.g.).V <.).).).F ).g.} G.).).).).).).).).",
").).).).).).).h.l.).).).).(.t.s.).=.P.).).).).).).).).).).).).).).).).).).).).).).).).).P.l.^.).).R.N X H ).-. .).).).).).).).).",
").).).).).).I.j.G.).).).c.h.).^.:.z.).).).).).).).).).).).).).).).).).).).).).).).).).).).G.L.)., . O.. ~.).9.} T.).).).).).).).",
").).).).).).l.j.).T.).).n.d A.L.:.).).).).).).).).).).).).).).).).).).).).).).).).).).).).).V.).y /.>.,.(.4.!.-.g.).).).).).).).",
").).).).).).g.z.).i l.)./.( )...L.).).).).).).).).).).).).).).).).).).).).).).).).).).).).).E.L.).).+ y.&   ).8.| ).).).).).).).",
").).).).).T.g.P./.} U J ] 8.W...).^.n.F.J.J.n.V.)./.G.n.L.G.A.V.G./.^.G.F.V.G.J.G.V.G.V.T.).).P.).F + & d./.).g. .Q.).).).).).).",
").).).).).V.g.~.).).).G.L Q.9.z.).)./.7.K T w.).).).).j.J R 8.h.! T ) T -.n.| P ~ g.g.J 8./.).Q.).Z.d.).).).).J.=.V.).).).).).).",
").).).).).g.0.).).).).).).~.( ^.).).).L.g } G.).).).).G.R ! n.).G.} L h.).).7.L  .E.).j.g./.)./.!./.).).).).).^.-.g.).).).).).).",
").).).).).8.g.).).).).).).V.} ).).).).J.g } G.).).).).G.R R b.)./.8.K -.W.).8.K  .W.).).j.W.).).^.).).).).).).).:.:.).).).).).).",
").).).).).9.l.).).).).).).g.:.).).).).L.g } A.).).).).G.R R b.).).8.K X.E.).7.K | E.).).T./.).)./.(.).).).).).).8.*.).).).).).).",
").).).).^.8.n.).).).).)./.:.g.).)./.).J.g } G.).).).).G.T T v.).I...J g.).).:.L | Q.).).)./.).).).~.).).).).).).g.=.).).).).).).",
").).).).Q.7.V.).).} (.n.).| l.).^.T R  .8.q.9.g.l.n.A.I./.).).^.!.W.E.J.n.l.l.j.t.;. .} T } ^.).~.T.).n.c.A.^.).j.-./.).).).).).",
").).).).I.7.A.).T.;.c._ ).( n.).).V.L =.:.9.g.h.z.V.G.I.Q./.).^.W.T.P.L.V.z.l.h.0.7.;.*.L I.).).R.K.).t.j.:.9.).l.-./.).).).).).",
").).).).E.:.V.).).T.! ).).~ l.).).!...-...8.g.n.V.G.P.I.G.I.^.).Q.J.n.V.G.G.h.8.9.0.0.-.8.^.).).U.Z.).).t.9.).).j.:.(.).).).).).",
").).).).!.-.n.).)./.n.)./.) w.).).).).P.f ) G.).).).).V.J J l.).).8.f L A.).-.f | E.).).).).).).S.Z.).).L.P.).).h.:.).).).).).).",
").).).)./.=.h.).).).).).)... .).^.U R  .8.w.9.g.l.b.G.I.^.).).^.E.E.E.P.V.j.l.l.0.:...} T } ^.).d.Z.).).).).).).g.:.).).).).).).",
").).).).).] 8.).).).).).).g.P ).).n.P *.:.9.g.h.z.V.L.I.Q./.).^.Q.T.P.G.V.z.l.h.0.8.;.*.L P.).).4.K.).).).).).).9.8.).).).).).).",
").).).).).=.=.).).).).).).c.T ).).^. .;.*.8.h.n.V.L.P.G.L.I./.).^.L.A.n.V.G.h.9.9.w.9.*.:.^.).^.#.~.).).).).).).q.g.).).).).).).",
").).).).).9.../.).).).%.r Y 7.F.).).).V.f R g.)./.L.| P T K w.).8.J L V.).).-.J T I.).).).).).N.<.).d.^.).).).T.9.V.).).).).).).",
").).).).).n.| G.).p p ' m B.n.| )./.j.7.g.w.9.7.:.8.9.w.w.g.9.:.9.V./.).W.g.9.w.9.8.P.).).).).#.C.).O N /.).).V.8.T.).).).).).).",
").).).).).^.} 8.).t.c.).k ).%.X.Q.).).).).).).).).).).).).).).).).).).).).).).).).).).).).).K.D ).F 3.2 O 2 m.x.8.).).).).).).).",
").).).).).).} | ).).(.p c.b q g.9.).).).).).).).).).).).).).).).).).).).).).).).).).).).).).#.6.).< T.).U.  ).j.h.).).).).).).).",
").).).).).).j.} V.).t.5 k i./.Q...L.).).).).).).).).).).).).).).).).).).).).).).).).).).).d.B (.K.O N ).).).V.9.P.).).).).).).).",
").).).).).).).R } ).^.l ).).).T. .g./.).).).).).).).).).).).).).).).).).).).).).).).).).R.N C.).).R.D.).).).g.9.).).).).).).).).",
").).).).).).).-._ A.).).).).^.r k l.j.).).).).).).).).).).).).).).).).).).).).).).).).).F 4.).t 1 ^.).).).G.g.V.).).).).).).).).",
").).).).).).).^.P _ ).).^.s.- ^ ).).j.z.).).).).).).).).).).).).).).).).).).).).).).).o.H ).t a.w @ ^.).).g.9.).).).).).).).).).",
").).).).).).).).-.! g.).c.* r.).).P.3.V.V./.).).).).).).).).).).).).).).).).).).).R.H H ).[ Q /.).y , ).V.w.G.).).).).).).).).).",
").).).).).).).).).J ! ^.).r.).).I.- m W J.V.Q.).).).).).).).).).).).).).).).).).N.B <./.).d.O O.).3.H Q.j.0.).).).).).).).).).).",
").).).).).).).).).V.J ~ ).).).Q.5 ` ).c.k ).V.P./.).).).).).).).).).).).).).I.>.Z U.).w N.).c.% t < ).z.9.^.).).).).).).).).).).",
").).).).).).).).).).] P } ).).r.r ).!.b m )././.W.E.^./.).).).).).).).R.C.<.H 6.).3.n $ 5.).).S.G ).n.w.G.).).).).).).).).).).).",
").).).).).).).).).).).P R :.).T.c A.%.q ).(.^ = @.Q.).~.(.(.Q.Y.K.M.p.<.6.K.).).C A ).+.$ K.).).).c.g.z.).).).).).).).).).).).).",
").).).).).).).).).).)./.L R 7.).^.m q J.).~.3.A.B.e K.).)./.R.R.~.~.R.).Y.h S ).[ e j d.y 8 R.).z.g.j.).).).).).).).).).).).).).",
").).).).).).).).).).).)./.P R -.).).).)./.^.).).k.e A.).).).)./.A 0 A.).).V C /.).e.O.).v Q ).n.g.j./.).).).).).).).).).).).).).",
").).).).).).).).).).).).)./.! ! } ^.).).I.s %.).' M ).).).).).).O.M /.).).3.y J.).N.> 9 R.).j.g.l./.).).).).).).).).).).).).).).",
").).).).).).).).).).).).).)./.*.R } j.).).J.b x e i.).).).).).).$.n ^.).).Q.3 3.).).).).G.g.w.V.).).).).).).).).).).).).).).).).",
").).).).).).).).).).).).).).).).n.R } | J.).).I.Z.).).).).).&.2.e.^ 1.Q Q.T.n $./.).K.g.g.g.T.).).).).).).).).).).).).).).).).).",
").).).).).).).).).).).).).).).).).^.:.~ | ..V./.).).).).).).s.0 z M z $.R.).)./.G.g.g.w.n./.).).).).).).).).).).).).).).).).).).",
").).).).).).).).).).).).).).).).).).).T.:.}  . .8.n.T./.).).).).).).)./.W.G.g.q.g.0.z.^.).).).).).).).).).).).).).).).).).).).).",
").).).).).).).).).).).).).).).).).).).).).^.h.*...-.-.=.:.9.g.g.g.9.8.9.9.w.9.g.A./.).).).).).).).).).).).).).).).).).).).).).).",
").).).).).).).).).).).).).).).).).).).).).).).).W.V.g.8.:.:.:.8.8.8.9.g.z.G.^.).).).).).).).).).).).).).).).).).).).).).).).).).",
").).).).).).).).).).).).).).).).).).).).).).).).).).).).)./.^.^././.).).).).).).).).).).).).).).).).).).).).).).).).).).).).).).",
").).).).).).).).).).).).).).).).).).).).).).).).).).).).).).).).).).).).).).).).).).).).).).).).).).).).).).).).).).).).).).).).",
").).).).).).).).).).).).).).).).).).).).).).).).).).).).).).).).).).).).).).).).).).).).).).).).).).).).).).).).).).).).).).).).",
").).).).).).).).).).).).).).).).).).).).).).).).).).).).).).).).).).).).).).).).).).).).).).).).).).).).).).).).).).).).).).).).",
").).).).).).).).).).).).).).).).).).).).).).).).).).).).).).).).).).).).).).).).).).).).).).).).).).).).).).).).).).).).).).).).",
").).).).).).).).).).).).).).).).).).).).).).).).).).).).).).).).).).).).).).).).).).).).).).).).).).).).).).).).).).).).).).).)."
};
